# AST/ASF file generated using VICON BodyLanguage
# -----------------------------------------------
:version 1.10
:name VICON
:units
  mass 1.0
  length 0.45
  angle deg
:documentation
   .ast/.asf automatically generated from VICON data using
   VICON BodyBuilder and BodyLanguage model FoxedUp or BRILLIANT.MOD
:root
   order TX TY TZ RX RY RZ
   axis XYZ
   position 0 0 0  
   orientation 0 0 0 
:bonedata
  begin
     id 1 
     name lhipjoint
     direction 0.537252 -0.787203 0.302774 
     length 2.29576 
     axis 0 0 0  XYZ
  end
  begin
     id 2 
     name lfemur
     direction 0.34202 -0.939693 0  
     length 7.31114  
     axis 0 0 20  XYZ
    dof rx ry rz
    limits (-160.0 20.0)
           (-70.0 70.0)
           (-60.0 70.0)
  end
  begin
     id 3 
     name ltibia
     direction 0.34202 -0.939693 0   
     length 8.36008   
     axis 0 0 20   XYZ
    dof rx
    limits (-10.0 170.0)
  end
  begin
     id 4 
     name lfoot
     direction 0.0969116 -0.266263 0.959016   
     length 2.16704   
     axis -90 7.62852e-016 20   XYZ
    dof rx rz
    limits (-45.0 90.0)
           (-70.0 20.0)
  end
  begin
     id 5 
     name ltoes
     direction 1.53563e-011 -4.21779e-011 1   
     length 1.08338   
     axis -90 7.62852e-016 20   XYZ
    dof rx
    limits (-90.0 20.0)
  end
  begin
     id 6 
     name rhipjoint
     direction -0.588228 -0.754791 0.290308   
     length 2.39434  
     axis 0 0 0  XYZ 
  end
  begin
     id 7 
     name rfemur
     direction -0.34202 -0.939693 0   
     length 7.45207   
     axis 0 0 -20   XYZ
    dof rx ry rz
    limits (-160.0 20.0)
           (-70.0 70.0)
           (-70.0 60.0)
  end
  begin
     id 8 
     name rtibia
     direction -0.34202 -0.939693 0   
     length 8.03565   
     axis 0 0 -20   XYZ
    dof rx
    limits (-10.0 170.0)
 end
 begin
     id 9 
     name rfoot
     direction -0.107009 -0.294004 0.949795   
     length 2.11509  
     axis -90 -7.62852e-016 -20   XYZ
    dof rx rz
    limits (-45.0 90.0)
           (-20.0 70.0)
  end
  begin
     id 10 
     name rtoes
     direction -1.53533e-011 -4.22004e-011 1   
     length 1.05493   
     axis -90 -7.62852e-016 -20   XYZ
    dof rx
    limits (-90.0 20.0)
  end
  begin
     id 11 
     name lowerback
     direction -0.0115208 0.997969 -0.0626515   
     length 2.03153   
     axis 0 0 0   XYZ
    dof rx ry rz
    limits (-20.0 45.0)
           (-30.0 30.0)
           (-30.0 30.0)
  end
  begin
     id 12 
     name upperback
     direction -0.00423475 0.999974 -0.00583614   
     length 2.03619   
     axis 0 0 0   XYZ
    dof rx ry rz
    limits (-20.0 45.0)
           (-30.0 30.0)
           (-30.0 30.0)
  end
  begin
     id 13 
     name thorax
     direction 0.00289429 0.999728 0.0231573   
     length 2.03921   
     axis 0 0 0   XYZ
    dof rx ry rz
    limits (-20.0 45.0)
           (-30.0 30.0)
           (-30.0 30.0)
  end
  begin
     id 14 
     name lowerneck
     direction 0.0188995 0.987777 0.154721   
     length 1.78836   
     axis 0 0 0   XYZ
    dof rx ry rz
    limits (-20.0 45.0)
           (-30.0 30.0)
           (-30.0 30.0)
  end
  begin
     id 15 
     name upperneck
     direction -0.00612612 0.992995 -0.118   
     length 1.81789   
     axis 0 0 0   XYZ
    dof rx ry rz
    limits (-20.0 45.0)
           (-30.0 30.0)
           (-30.0 30.0)
  end
  begin
     id 16
     name head
     direction -0.00420226 0.998397 -0.0564482  
     length 1.82234  
     axis 0 0 0   XYZ
    dof rx ry rz
    limits (-20.0 45.0)
           (-30.0 30.0)
           (-30.0 30.0)
  end
  begin
     id 17 
     name lclavicle
     direction 0.916488 0.396539 0.0529676  
     length 3.51732  
     axis 0 0 0   XYZ
    dof ry rz
    limits (-20.0 10.0)
           (0.0 20.0)
  end
  begin
     id 18 
     name lhumerus
     direction 1 -4.4896e-011 8.36962e-028   
     length 5.45077   
     axis 180 -30 -90   XYZ
    dof rx ry rz
    limits (-60.0 90.0)
           (-90.0 90.0)
           (-90.0 90.0)
  end
  begin
     id 19
     name lradius
     direction 1 -4.48962e-011 3.01407e-027   
     length 3.05488   
     axis 180 -30 -90   XYZ
    dof rx
    limits (-10.0 170.0)
  end
  begin
     id 20
     name lwrist
     direction 1 -4.49002e-011 4.72961e-027   
     length 1.52744   
     axis -2.72261e-015 90 90   XYZ
    dof ry
    limits (-180.0 0.0)
 end
  begin
     id 21 
     name lhand
     direction 1 -4.4899e-011 9.45681e-027   
     length 0.638818   
     axis -6.0311e-015 90 90   XYZ
    dof rx rz
    limits (-90.0 90.0)
           (-45.0 45.0)
  end
  begin
     id 22 
     name lfingers
     direction 1 -4.48871e-011 1.88632e-026   
     length 0.515032   
     axis -1.20625e-014 90 90   XYZ
    dof rx
    limits (0.0 90.0)
  end
  begin
     id 23
     name lthumb
     direction 0.707107 -6.34964e-011 0.707107   
     length 0.739485   
     axis -90 45 6.32835e-014   XYZ
    dof rx rz
    limits (-45.0 45.0)
           (-45.0 45.0)
  end
  begin
     id 24 
     name rclavicle
     direction -0.949427 0.303202 0.0815894   
     length 3.76167  
     axis 0 0 0   XYZ 
    dof ry rz
    limits (-10.0 20.0)
           (-20.0 0.0)
  end
  begin
     id 25 
     name rhumerus
     direction -1 -4.48971e-011 -6.43969e-018  
     length 4.88702   
     axis 180 30 90   XYZ
    dof rx ry rz
    limits (-90.0 60.0)
           (-90.0 90.0)
           (-90.0 90.0)
  end
  begin
     id 26 
     name rradius
     direction -1 -4.48987e-011 5.46662e-027   
     length 3.22603   
     axis 180 30 90   XYZ
    dof rx
    limits (-10.0 170.0)
  end
  begin
     id 27 
     name rwrist
     direction -1 -4.48956e-011 4.72476e-027   
     length 1.61302   
     axis -2.72261e-015 -90 -90   XYZ
    dof ry
    limits (-180.0 0.0)
  end
  begin
     id 28
     name rhand
     direction -1 -4.4889e-011 9.43571e-027   
     length 0.716293   
     axis -6.0311e-015 -90 -90   XYZ
    dof rx rz
    limits (-90.0 90.0)
           (-45.0 45.0)
  end
  begin
     id 29
     name rfingers
     direction -1 -4.48887e-011 1.88701e-026   
     length 0.577494   
     axis -1.20625e-014 -90 -90   XYZ
    dof rx
    limits (0.0 90.0)
  end
  begin
     id 30
     name rthumb
     direction -0.707107 -6.34825e-011 0.707107   
     length 0.829169   
     axis -90 -45 -6.32835e-014   XYZ
    dof rx rz
    limits (-45.0 45.0)
           (-45.0 45.0)
  end
:hierarchy
  begin
    root lhipjoint rhipjoint lowerback
    lhipjoint lfemur
    lfemur ltibia
    ltibia lfoot
    lfoot ltoes
    rhipjoint rfemur
    rfemur rtibia
    rtibia rfoot
    rfoot rtoes
    lowerback upperback
    upperback thorax
    thorax lowerneck lclavicle rclavicle
    lowerneck upperneck
    upperneck head
    lclavicle lhumerus
    lhumerus lradius
    lradius lwrist
    lwrist lhand lthumb
    lhand lfingers
    rclavicle rhumerus
    rhumerus rradius
    rradius rwrist
    rwrist rhand rthumb
    rhand rfingers
  end

#!OML:ASF F:\VICON\USERDATA\INSTALL\rory3\rory3.ASF
:FULLY-SPECIFIED
:DEGREES
218
root -0.48091 11.9707 0.789134 205.756 61.4325 171.487
lowerback 40.5308 2.07011 -7.94516
upperback 9.5813 0.791791 -4.96843
thorax -8.66492 1.26899 -1.66819
lowerneck -22.9472 4.80978 4.37817
upperneck 8.26006 7.54835 -14.3547
head 7.04252 2.64383 -4.46614
rclavicle -2.28602e-014 8.01102e-014
rhumerus 57.7087 14.713 -57.1554
rradius 42.8264
rwrist -39.059
rhand -9.88136 4.35944
rfingers 7.12502
rthumb 16.0979 -24.9919
lclavicle -2.28602e-014 8.01102e-014
lhumerus 39.1323 -5.56251 53.1181
lradius 52.127
lwrist 74.7209
lhand -2.36006 32.5907
lfingers 7.12502
lthumb 23.328 61.1972
rfemur -122.025 -40.0565 47.8495
rtibia 121.378
rfoot -20.8896 11.89
rtoes -23.0991
lfemur -115.969 13.2883 -36.5976
ltibia 111.643
lfoot -8.97466 -30.2892
ltoes 6.29805
219
root -0.478447 11.9075 0.784953 205.513 61.4664 171.435
lowerback 40.6007 2.14947 -8.03844
upperback 9.63102 0.866421 -4.93399
thorax -8.62769 1.30673 -1.61592
lowerneck -23.0481 4.78014 4.3449
upperneck 8.33531 7.52448 -14.3345
head 7.07867 2.62603 -4.45751
rclavicle 2.37548e-014 5.69518e-014
rhumerus 58.2945 14.614 -57.5815
rradius 41.9041
rwrist -39.0301
rhand -9.73861 4.26931
rfingers 7.12502
rthumb 16.2354 -25.0709
lclavicle 2.37548e-014 5.69518e-014
lhumerus 39.3317 -5.67126 52.9542
lradius 52.1345
lwrist 75.3573
lhand -3.24236 32.6848
lfingers 7.12502
lthumb 22.4813 61.3962
rfemur -122.469 -40.3249 47.8312
rtibia 121.985
rfoot -20.8146 12.0017
rtoes -23.8262
lfemur -116.464 13.3786 -36.631
ltibia 112.422
lfoot -8.83362 -30.2319
ltoes 5.51238
220
root -0.477078 11.8528 0.783249 205.523 61.4463 171.754
lowerback 40.7593 2.20468 -7.98677
upperback 9.68565 0.963694 -4.86373
thorax -8.61804 1.35378 -1.61088
lowerneck -23.0875 4.77081 4.27969
upperneck 8.35948 7.52721 -14.29
head 7.08838 2.62635 -4.43147
rclavicle -1.96797e-014 -6.39093e-014
rhumerus 58.816 14.5431 -58.102
rradius 41.0835
rwrist -38.9394
rhand -9.4621 4.11048
rfingers 7.12502
rthumb 16.5016 -25.2078
lclavicle -1.96797e-014 -6.39093e-014
lhumerus 39.6197 -5.73748 52.7716
lradius 51.8735
lwrist 75.6723
lhand -3.11287 32.816
lfingers 7.12502
lthumb 22.6056 61.5123
rfemur -122.517 -40.5049 47.741
rtibia 122.358
rfoot -20.5153 12.2927
rtoes -23.4266
lfemur -116.933 13.6017 -36.5111
ltibia 113.166
lfoot -8.73187 -30.2067
ltoes 4.95144
221
root -0.472939 11.7955 0.778573 205.465 61.4358 171.958
lowerback 40.89 2.23981 -7.95
upperback 9.73568 1.03069 -4.80837
thorax -8.60377 1.38708 -1.60107
lowerneck -23.0604 4.75782 4.18886
upperneck 8.2888 7.52761 -14.268
head 7.05669 2.63069 -4.40839
rclavicle 2.01766e-014 1.14798e-014
rhumerus 59.3226 14.4523 -58.7885
rradius 40.2759
rwrist -38.6482
rhand -8.99931 3.95124
rfingers 7.12502
rthumb 16.9471 -25.3294
lclavicle 2.01766e-014 1.14798e-014
lhumerus 39.9566 -5.77118 52.6669
lradius 51.4616
lwrist 75.7215
lhand -2.94575 32.8139
lfingers 7.12502
lthumb 22.766 61.4906
rfemur -122.531 -40.7003 47.5237
rtibia 122.603
rfoot -19.914 12.8066
rtoes -22.2768
lfemur -117.177 13.7718 -36.4301
ltibia 113.775
lfoot -8.42827 -30.2877
ltoes 5.50413
222
root -0.469236 11.7339 0.770468 205.343 61.4359 172.084
lowerback 40.9873 2.24649 -7.85954
upperback 9.81741 1.09308 -4.77687
thorax -8.54476 1.41912 -1.63991
lowerneck -23.1667 4.65865 3.97931
upperneck 8.31538 7.43082 -14.0836
head 7.05529 2.58803 -4.32546
rclavicle -7.06679e-014 3.50358e-014
rhumerus 59.8281 14.2748 -59.6847
rradius 39.3843
rwrist -38.1029
rhand -8.62185 3.89013
rfingers 7.12502
rthumb 17.3104 -25.359
lclavicle -7.06679e-014 3.50358e-014
lhumerus 40.2487 -5.83165 52.5329
lradius 51.1791
lwrist 75.9202
lhand -2.94566 32.8748
lfingers 7.12502
lthumb 22.7661 61.5515
rfemur -122.815 -41.0182 47.4454
rtibia 122.994
rfoot -19.4598 13.3371
rtoes -21.9756
lfemur -117.406 13.8829 -36.3811
ltibia 114.336
lfoot -8.20117 -30.2913
ltoes 5.92984
223
root -0.466684 11.6819 0.760431 205.077 61.4128 172.114
lowerback 41.173 2.24346 -7.76813
upperback 9.89251 1.13753 -4.76539
thorax -8.51927 1.44685 -1.69728
lowerneck -23.2438 4.61948 3.80694
upperneck 8.3669 7.40336 -13.8946
head 7.06513 2.57899 -4.23792
rclavicle -2.18663e-014 -7.02207e-014
rhumerus 60.3145 14.0773 -60.6379
rradius 38.3888
rwrist -37.5847
rhand -8.1341 3.93619
rfingers 7.12502
rthumb 17.7798 -25.271
lclavicle -2.18663e-014 -7.02207e-014
lhumerus 40.6441 -5.9351 52.454
lradius 50.7936
lwrist 76.0287
lhand -3.08864 33.1158
lfingers 7.12502
lthumb 22.6289 61.8093
rfemur -123.098 -41.5002 47.4527
rtibia 123.46
rfoot -19.2634 13.7878
rtoes -22.522
lfemur -117.687 13.9392 -36.3926
ltibia 114.955
lfoot -8.64656 -30.1342
ltoes 4.59137
224
root -0.487401 11.7443 0.761815 204.742 61.3979 172.057
lowerback 41.3405 2.27274 -7.7787
upperback 9.9752 1.1877 -4.73123
thorax -8.4762 1.47719 -1.68019
lowerneck -23.2293 4.73764 3.81079
upperneck 8.26387 7.56629 -13.9812
head 7.0498 2.65641 -4.24362
rclavicle 2.25621e-014 -1.77167e-014
rhumerus 60.7969 13.8933 -61.5768
rradius 37.3815
rwrist -36.8562
rhand -7.69248 4.01101
rfingers 7.12502
rthumb 18.2047 -25.1571
lclavicle 2.25621e-014 -1.77167e-014
lhumerus 41.1329 -6.03634 52.5341
lradius 50.2052
lwrist 75.8721
lhand -3.1751 33.268
lfingers 7.12502
lthumb 22.5459 61.9716
rfemur -122.404 -41.6905 47.2723
rtibia 123.11
rfoot -19.0765 13.9368
rtoes -22.3879
lfemur -117.053 13.9027 -36.4126
ltibia 114.788
lfoot -9.31501 -29.9117
ltoes 3.12565
225
root -0.482602 11.6917 0.756952 204.514 61.384 171.99
lowerback 41.423 2.35922 -7.82448
upperback 10.0389 1.29468 -4.66751
thorax -8.4291 1.52901 -1.63413
lowerneck -23.2299 4.77826 3.87857
upperneck 8.21129 7.61773 -14.1009
head 7.04711 2.67744 -4.28685
rclavicle 7.55382e-015 1.11307e-013
rhumerus 61.2007 13.6511 -62.2632
rradius 36.441
rwrist -36.2223
rhand -7.29634 4.09758
rfingers 7.12502
rthumb 18.5858 -25.0345
lclavicle 7.55382e-015 1.11307e-013
lhumerus 41.694 -6.15663 52.7376
lradius 49.526
lwrist 75.7856
lhand -2.96688 33.2448
lfingers 7.12502
lthumb 22.7457 61.924
rfemur -122.868 -42.0285 47.3836
rtibia 123.607
rfoot -18.9485 14.1578
rtoes -22.4275
lfemur -117.256 13.9196 -36.4618
ltibia 115.284
lfoot -9.37733 -29.891
ltoes 3.31242
226
root -0.452666 11.5237 0.744694 204.305 61.3631 171.915
lowerback 41.5266 2.45778 -7.85359
upperback 10.0857 1.41623 -4.61274
thorax -8.40816 1.58763 -1.61365
lowerneck -23.2449 4.70047 3.87295
upperneck 8.16488 7.49747 -14.0226
head 7.01801 2.62864 -4.27621
rclavicle -2.62893e-014 9.44848e-015
rhumerus 61.5866 13.3982 -62.9029
rradius 35.5079
rwrist -35.6264
rhand -7.26402 4.22619
rfingers 7.12502
rthumb 18.6169 -24.903
lclavicle -2.62893e-014 9.44848e-015
lhumerus 42.2527 -6.3371 52.7981
lradius 48.7991
lwrist 75.8372
lhand -2.79014 32.737
lfingers 7.12502
lthumb 22.9154 61.3953
rfemur -124.415 -42.6381 47.7662
rtibia 124.922
rfoot -18.8416 14.5907
rtoes -22.8324
lfemur -118.259 14.0418 -36.5127
ltibia 116.45
lfoot -8.62068 -30.1422
ltoes 5.43389
227
root -0.449479 11.4771 0.743389 204.149 61.3147 171.921
lowerback 41.649 2.54362 -7.85459
upperback 10.1265 1.53153 -4.54197
thorax -8.40061 1.64278 -1.58866
lowerneck -23.2484 4.61198 3.89173
upperneck 8.18173 7.36867 -13.9826
head 7.01008 2.5704 -4.28415
rclavicle 1.37192e-013 1.63112e-014
rhumerus 61.9346 13.1737 -63.6328
rradius 34.6422
rwrist -34.8595
rhand -7.37747 4.17624
rfingers 7.12502
rthumb 18.5078 -24.9633
lclavicle 1.37192e-013 1.63112e-014
lhumerus 42.5726 -6.49598 52.7676
lradius 48.3938
lwrist 75.9383
lhand -2.359 32.9294
lfingers 7.12502
lthumb 23.329 61.5358
rfemur -124.761 -42.9519 47.9445
rtibia 125.347
rfoot -18.8691 14.7415
rtoes -23.2215
lfemur -118.371 14.1031 -36.5241
ltibia 116.807
lfoot -8.16998 -30.2422
ltoes 6.78414
228
root -0.473628 11.5468 0.751806 204.081 61.2719 172.009
lowerback 41.7525 2.63711 -7.81932
upperback 10.1732 1.67251 -4.46676
thorax -8.38246 1.70852 -1.58687
lowerneck -23.3502 4.5801 3.91951
upperneck 8.3255 7.32992 -13.9636
head 7.06944 2.5435 -4.28872
rclavicle 6.11263e-015 -7.66812e-014
rhumerus 62.3327 12.924 -64.1051
rradius 33.7518
rwrist -34.2808
rhand -7.20286 4.22235
rfingers 7.12502
rthumb 18.6757 -24.9011
lclavicle 6.11263e-015 -7.66812e-014
lhumerus 42.8048 -6.71472 52.7242
lradius 48.2835
lwrist 76.1648
lhand -2.57798 33.1492
lfingers 7.12502
lthumb 23.1189 61.7821
rfemur -124.043 -42.9182 47.9123
rtibia 124.915
rfoot -19.0323 14.5204
rtoes -23.6723
lfemur -117.68 14.0618 -36.5069
ltibia 116.362
lfoot -8.11875 -30.1725
ltoes 7.19712
229
root -0.472749 11.5077 0.751765 204.061 61.2565 172.109
lowerback 41.8466 2.69427 -7.82415
upperback 10.2236 1.75273 -4.42053
thorax -8.35468 1.74764 -1.57035
lowerneck -23.4397 4.62654 3.87525
upperneck 8.29793 7.39507 -13.9142
head 7.07664 2.57573 -4.25508
rclavicle -9.39258e-015 -4.84538e-015
rhumerus 62.794 12.7046 -64.9145
rradius 32.7872
rwrist -33.365
rhand -6.88875 4.21825
rfingers 7.12502
rthumb 18.9778 -24.8759
lclavicle -9.39258e-015 -4.84538e-015
lhumerus 43.1272 -6.80034 52.8458
lradius 47.9157
lwrist 76.1507
lhand -3.0708 33.0163
lfingers 7.12502
lthumb 22.646 61.7078
rfemur -124.365 -43.1398 48.0791
rtibia 125.268
rfoot -18.9689 14.724
rtoes -23.7002
lfemur -117.971 14.1431 -36.5464
ltibia 116.713
lfoot -7.87232 -30.1802
ltoes 7.67794
230
root -0.469866 11.4704 0.750873 204.033 61.2673 172.089
lowerback 41.872 2.78494 -7.89376
upperback 10.2287 1.83923 -4.36646
thorax -8.35709 1.78587 -1.51408
lowerneck -23.4178 4.60542 3.83928
upperneck 8.23735 7.37 -13.8982
head 7.04886 2.5685 -4.24681
rclavicle 5.63555e-014 -1.73191e-014
rhumerus 63.1312 12.4959 -65.7808
rradius 31.8487
rwrist -32.384
rhand -6.52639 4.15642
rfingers 7.12502
rthumb 19.3263 -24.9032
lclavicle 5.63555e-014 -1.73191e-014
lhumerus 43.4953 -6.97453 53.0664
lradius 47.3617
lwrist 75.934
lhand -3.08445 32.7895
lfingers 7.12502
lthumb 22.6329 61.4825
rfemur -124.779 -43.2888 48.2162
rtibia 125.565
rfoot -18.8183 14.976
rtoes -23.4322
lfemur -118.432 14.3683 -36.9282
ltibia 117.052
lfoot -7.75295 -30.2912
ltoes 7.64747
231
root -0.467167 11.4349 0.747216 203.935 61.2736 172.015
lowerback 41.9444 2.85178 -7.92292
upperback 10.2407 1.91033 -4.34357
thorax -8.36554 1.81998 -1.50725
lowerneck -23.4617 4.55993 3.83327
upperneck 8.27889 7.29501 -13.7887
head 7.05578 2.53725 -4.22004
rclavicle -2.78299e-014 -4.8255e-014
rhumerus 63.47 12.2881 -66.5042
rradius 30.9185
rwrist -31.7039
rhand -6.39414 4.37449
rfingers 7.12502
rthumb 19.4534 -24.6724
lclavicle -2.78299e-014 -4.8255e-014
lhumerus 43.8761 -7.11574 53.2125
lradius 46.7882
lwrist 75.7043
lhand -2.66873 32.7383
lfingers 7.12502
lthumb 23.0319 61.3821
rfemur -125.14 -43.5065 48.3055
rtibia 125.861
rfoot -18.871 15.2735
rtoes -23.7977
lfemur -118.702 14.3688 -37.0829
ltibia 117.403
lfoot -8.12319 -30.1435
ltoes 6.67506
232
root -0.467192 11.4085 0.745415 204.158 61.2148 172.293
lowerback 42.0291 2.85034 -7.79176
upperback 10.258 1.96248 -4.29599
thorax -8.37566 1.84315 -1.54681
lowerneck -23.5194 4.51555 3.77246
upperneck 8.28983 7.23516 -13.6737
head 7.05439 2.51336 -4.17996
rclavicle 5.6753e-014 4.80562e-014
rhumerus 63.8544 12.1713 -67.0216
rradius 30.174
rwrist -31.2468
rhand -6.35631 4.28699
rfingers 7.12502
rthumb 19.4898 -24.7562
lclavicle 5.6753e-014 4.80562e-014
lhumerus 44.1741 -7.08271 53.332
lradius 46.3584
lwrist 75.5376
lhand -2.40817 32.8517
lfingers 7.12502
lthumb 23.2819 61.4641
rfemur -125.368 -43.6206 48.5014
rtibia 126.08
rfoot -18.811 15.4594
rtoes -23.9747
lfemur -118.969 14.4298 -36.9941
ltibia 117.681
lfoot -8.2549 -30.1566
ltoes 6.3767
